<svg xmlns="http://www.w3.org/2000/svg" xmlns:xlink="http://www.w3.org/1999/xlink" fill="none" version="1.1" width="52" height="47" viewBox="0 0 52 47"><g><g><ellipse cx="23.5" cy="23.5" rx="23.5" ry="23.5" fill="#3491FA" fill-opacity="1"/></g><g><path d="M23.506816819763184,7.421052932739258C32.38981681976318,7.421052932739258,39.59051681976318,14.918752932739258,39.59051681976318,24.168252932739257C39.59051681976318,31.084752932739256,35.56311681976318,37.02335293273926,29.816416819763184,39.577252932739256L25.766616819763183,28.60785293273926C27.292916819763185,27.765552932739258,28.331916819763183,26.09415293273926,28.331916819763183,24.168252932739257C28.331916819763183,21.39325293273926,26.171916819763183,19.144052932739257,23.506816819763184,19.144052932739257C20.84181681976318,19.144052932739257,18.68171681976318,21.39325293273926,18.68171681976318,24.168252932739257C18.68171681976318,26.09415293273926,19.722416819763183,27.765552932739258,21.24871681976318,28.60955293273926L17.198846819763183,39.578952932739256C11.450556819763182,37.02165293273926,7.423216819763184,31.084752932739256,7.423216819763184,24.168252932739257C7.423216819763184,14.918752932739258,14.623856819763184,7.421052932739258,23.506816819763184,7.421052932739258Z" fill="#FFFFFF" fill-opacity="1"/></g><g transform="matrix(0.8553739190101624,0.5180110335350037,-0.518231987953186,0.8552400469779968,20.6635755572388,-16.991127505584018)"><rect x="40.764259338378906" y="28.496891021728516" width="13.135472297668457" height="7.879806041717529" rx="0" fill="#3491FA" fill-opacity="1"/></g></g></svg>